<?xml version="1.0" encoding="utf-8"?>
<!-- Generator: Adobe Illustrator 21.0.1, SVG Export Plug-In . SVG Version: 6.00 Build 0)  -->
<svg version="1.1" id="Calque_1" xmlns="http://www.w3.org/2000/svg" xmlns:xlink="http://www.w3.org/1999/xlink" x="0px" y="0px"
	 viewBox="0 0 357.1 321.7" style="enable-background:new 0 0 357.1 321.7;" xml:space="preserve">
<style type="text/css">
	.st0{display:none;}
	.st1{fill:#FFFFFF;}
</style>
<g id="Layer_1" class="st0">
</g>
<g id="Calque_1_1_">
	<g id="Layer_1_1_" class="st0">
	</g>
	<g>
		<g>
			<path class="st1" d="M176.6,50.5c12.2-0.5,23.8,1.7,33.2,4.6c9.7,3,18.1,7,25.6,12.3c7.4,5.2,13.8,11.2,18.8,19
				c4.9,7.6,9.1,16.9,9.5,28.4c0.4,12.5-3.1,22.1-7.8,30c-4.7,8-11,14.5-18,19.9c-7.2,5.5-15.5,9.8-24.8,13
				c-9.5,3.3-20.2,5.3-32.2,5.7c-12.4,0.3-23.5-1.6-33.2-4.6c-9.8-3-18.1-7.1-25.6-12.3c-7.4-5.1-13.8-11.3-18.9-19
				c-5-7.5-9-16.7-9.5-28.4c-0.5-12.2,3.2-22.2,7.8-30c4.8-8.2,10.7-14.4,18-19.9c10.9-8.1,23.7-14.1,39.8-17.1
				C164.7,51.2,170.3,50.7,176.6,50.5 M160.5,60.8c-14,2.6-25.8,7.6-35.3,14.6c-6.4,4.7-11.8,10.1-16.1,17.2
				c-4.1,6.7-7.4,15.8-6.9,26.3c0.5,10.2,4.2,18.1,8.7,24.6c4.6,6.6,10.4,12,17,16.4c6.7,4.4,14.2,8,22.8,10.4
				c8.6,2.5,18.6,4.2,29.5,3.8c21-0.7,37.6-6.6,50.5-16.1c6.3-4.7,11.8-10.2,16.1-17.2c4.2-6.9,7.3-15.2,6.9-26.3
				c-0.3-9.9-4.2-18.2-8.7-24.6c-4.7-6.8-10.2-11.8-17-16.4c-10-6.7-22-11.4-36.6-13.4c-4.8-0.6-10.4-1.1-15.8-0.9
				C170.1,59.6,165.2,59.9,160.5,60.8"/>
			<path class="st1" d="M203.2,68.9c5.7,0.6,10.3,5.7,9.1,12.3c-0.6-0.4-3.3-3.4-6.9-1.3c-2,1.2-3.8,3.5-4.6,6.6
				c-0.6,2.1-1,4.8-1,7.4c0,2.1,0.1,3.8,1.9,4.3c0.6,0.1,1.1,0.1,1.5-0.1c0.7-0.2,1.6-1,1.6-1s0.1,4.7,0,6.7
				c-0.2,2.9-2.8,6.2-5.9,4.8c-1.2-0.5-2.2-1.8-2.7-3.2c-0.5-1.4-0.4-3.5-0.4-5.5c0-3.6,0.1-8.3,0.1-11.7c0-3.7-0.7-7.2-2.3-9.5
				c-1.4-2.1-3.9-4.1-7.3-4.4c-2.6-0.2-4.5,0.4-6.2,1.3c-1.5,0.8-3.1,2.2-3.9,3.9c-1,2.3-0.8,6.4-0.8,9.9c0,0-0.2,9.6,0.3,11.1
				c1.1,3.5,6.8,3.1,7.3-0.6c0.1-1.1,0.1-2.7,0.1-4.1v-7.7c0.2-2.4-0.6-5.1,1.5-5.1c1.8,0.1,1.5,2.1,1.5,4.1c0,7.3,0,22.6,0,22.6
				s-3-2.4-4.1-2.8c-2.2-0.8-4.4,0.4-5.2,1.8c-0.9,1.4-0.6,4.6-0.6,7.1c0,8.9,0,17.6,0,26.9c0,4,0,7.6,1,10.1
				c0.4,0.8,0.9,1.7,1.4,2.4c1.6,2.2,4.6,3.4,7.6,2.7c2.8-0.6,4.5-2.4,5.4-5.3c2,4.1,0.1,9.3-2.2,11.8c-1.8,2-4.7,3.6-8,3.7
				c-3.6,0.2-6.4-1.4-8.4-3.2c-1.4-1.3-2.7-3.2-3.2-5.5c-0.2-0.6-0.5-2-0.3-2.5c0.1-0.3,0.6-0.5,0.8-0.6c0.9-0.7,1.7-1.9,1.4-3.8
				c-0.3-1.7-2-3-3.9-2.9c-4.4,0.3-4.3,6.7-0.6,7.3c-1.1,2.2-3.1,4-5.6,4.8c-6.2,2-11.4-2.4-12.5-7.4c-0.5-2.2,0.1-4.8,1-6.4
				c0.3-0.5,0.6-1.1,1.1-1.3c-1,5.2,5.1,7,8.7,5.1c1.1-0.6,2.2-1.6,2.6-2.7c1.1-2.5,1.1-7.5,1.1-11.1v-13.2c0-8.5,1-16.4-6-18.2
				c0.8-0.6,1.7-1,2.4-1.7c0.7-0.6,1.3-1.3,1.8-2.2c1-1.8,1.3-3.9,1.3-6.8c0,0,0.2-13.6-0.1-16c-0.3-2.7-3.6-4.4-6.3-3
				c-0.2,0.1-0.8,0.4-0.8,0.4s2.1-5.8,5.6-8c2.7-1.7,5.9-3.3,10.5-2.9c-2,1-4.3,2.1-5.3,4.2c-0.5,1.1-0.7,2.9-0.1,4.2
				c1.2,2.7,6.4,2.4,6.6-0.7c0.2-2.6-2.2-3.3-2.2-3.3s12.3-9,29-0.3c0,0-0.5,0.8-0.6,1.5c-0.3,2.5,1.6,3.8,3.8,3.1
				C205.8,74.1,205.2,70.1,203.2,68.9L203.2,68.9z M164.3,106.5l5.2,7.7l5.2-7.7l-5.2-7.7L164.3,106.5z"/>
			<path class="st1" d="M131,127.7c-2.4,1.1-4.8,4.4-3.5,8.4c1,2.9,4.1,5.3,8.4,4.3c3.6-0.8,5.1-4.3,6.4-7.9c1.2-3.6,2-7.7,2.2-12
				c0.2-4.8-0.1-9.4-1-13.3c-0.4-1.9-1.1-3.7-1.7-5.4c-0.6-1.7-1.3-3.5-2.1-5c-0.4-0.7-0.8-1.4-1.5-2c-4.1-3.6-11.3-0.5-10.6,5.2
				c0.1,0.7,0.6,2.1,0.6,2.1s-1.2-0.9-1.7-1.5s-1.1-1.3-1.4-1.9c-1-2-1.2-4.6-0.9-6.7c0.9-6.9,7.9-12.8,15.8-10.5c1,0.3,2.8,1,2.8,1
				s-0.2-1.1-0.3-1.8c-0.1-3.2,2.6-5.8,5.7-5.7c2.5,0.1,4.2,1.6,5,3.7c-1.6,0.6-3,2.6-2.2,4.8c0.8,1.9,3.2,3.7,4.8,5
				c1.9,1.6,3.8,3.1,5.5,4.2c0.1,3.5,0.1,6.6-1.1,8.8c-0.5,0.8-1.5,2.3-2.4,2.4c-0.8,0-3.7-2.6-4.6-3c0.2,2.5,0.9,4.9,1.2,7.5
				c0.6,5.3,0.7,11.4,0.1,16.7c-1,7.4-3.2,14.9-7.1,19.5c-4,4.8-9.7,6.6-10.8,6.9c-7,2.2-12.9-1.1-15.4-5.8
				c-0.9-1.6-1.6-3.6-1.6-5.9c0-3.6,1.6-6.3,3.3-8.4C125.7,128.2,131,127.6,131,127.7z"/>
			<path class="st1" d="M234.4,137.8c1.5,3.9,0.2,7.9-1.7,10.4c-2,2.6-5.2,4.4-9.4,4.1c-2.1-0.1-3.4-0.9-5-1.7
				c-0.4,5.1-4,9.3-9.5,9.3c-6.9,0-8.9-7.1-8.9-7.1s1.6,0.8,1.9,1c5.3,1.9,9.8-4,6.9-8.7c-0.8-1.2-2.3-2.3-3.6-3.2
				c-8.9-6.9-18.3-14.1-26.9-20.9v-5c0-1.7-0.2-3.9,0.2-4.9c0.4-0.9,1.3-1.6,2.5-1.5c1.4,0,2.6,1.5,3.7,2.2
				c7.4,5.5,23.8,17.6,23.8,17.6c-3.4-12.1-2.4-29.2,1.8-39.5c1.5-3.5,3.4-7,6.4-8.7c7.8-4.4,14.7-0.8,17.4,2.3
				c1.8,2.1,3.7,5.2,3.2,8.8c-0.7,5.2-3,7.9-3.7,8.2c1.4-5.9-2.2-10.4-8-10c-2.7,0.2-4.5,1.6-5.6,3.6c-1.5,2.6-2.3,6.4-3,10.1
				c-0.7,3.6-1,7.9-1,12c0,4.4,0.5,8.2,1.2,11.8c1,5.4,2.3,9.3,5.5,12.3c2.1,2,5.2,4.1,8.3,2.2C233.1,141.3,234.4,137.8,234.4,137.8
				z"/>
			<polygon class="st1" points="169.4,111.7 165.7,106.5 169.4,101.3 173.1,106.5 			"/>
			<path class="st1" d="M193.4,146c-0.9,1.7-2.5,3.2-4.6,3.2c-2.7,0-4.8-2.1-5-4.8c-0.1-2.7-0.1-5.5-0.1-8.4v-8.6l4,3
				c0,0-0.1,10.2,0.2,10.8c0.7,1.7,3.8,1.5,4.9,0.2c0.4-0.5,1-2.2,1-2.2S194.5,143.9,193.4,146z"/>
		</g>
	</g>
</g>
<g id="Layer_2">
	<g>
		<path class="st1" d="M85.4,220.8h22.3v8.5H95.6v6h10.8v8.3H95.5v13.6H85.4V220.8z"/>
		<path class="st1" d="M121.7,220.8l15.2,21.3v-21.3H147v36.5h-9.8L122,235.9v21.4h-10.1v-36.5L121.7,220.8L121.7,220.8z"/>
		<path class="st1" d="M152.1,220.8h10.1v13.8h12.9v-13.8h10.1v36.5h-10.1v-14.8h-12.9v14.8h-10.1V220.8z"/>
	</g>
	<g>
		<path class="st1" d="M237.5,241.6c0,10.8-5.2,16.3-15.7,16.3c-10.1,0-15.2-5.3-15.2-15.8V221h8.1v21.2c0,6.1,2.5,9.1,7.4,9.1
			s7.3-2.9,7.3-8.8V221h8.1L237.5,241.6L237.5,241.6z"/>
	</g>
	<g>
		<path class="st1" d="M274.7,257.2h-10.2l-11.4-15.9c-0.3-0.4-0.6-1-1-1.9H252v17.8h-8.1v-36.4h8.1V238h0.1
			c0.4-0.8,0.7-1.4,1.1-1.9l10.8-15.2h9.6l-13.5,17.3L274.7,257.2z"/>
	</g>
</g>
</svg>
