<?xml version="1.0" encoding="utf-8"?>
<!-- Generator: Adobe Illustrator 21.0.1, SVG Export Plug-In . SVG Version: 6.00 Build 0)  -->
<svg version="1.1" id="Belgium" xmlns="http://www.w3.org/2000/svg" xmlns:xlink="http://www.w3.org/1999/xlink" x="0px" y="0px"
	 viewBox="0 0 308 253.7" style="enable-background:new 0 0 308 253.7;" xml:space="preserve">
<style type="text/css">
	.st0{fill:#2859AF;}
	.st1{opacity:0.2;}
	.st2{opacity:0.2;fill:none;stroke:#7ED1E2;stroke-width:5;stroke-linecap:round;stroke-linejoin:round;enable-background:new    ;}
	
		.st3{opacity:0.25;fill:none;stroke:#64CADE;stroke-width:4;stroke-linecap:round;stroke-linejoin:round;enable-background:new    ;}
	
		.st4{opacity:0.3;fill:none;stroke:#00BAD5;stroke-width:3.15;stroke-linecap:round;stroke-linejoin:round;enable-background:new    ;}
	.st5{fill:none;stroke:#00BAD5;stroke-width:2.5;stroke-linecap:round;stroke-linejoin:round;}
	.st6{fill:none;stroke:#58C7DD;stroke-width:1.95;stroke-linecap:round;stroke-linejoin:round;}
	.st7{fill:none;stroke:#8FD6E5;stroke-width:1.25;stroke-linecap:round;stroke-linejoin:round;}
	.st8{fill:none;stroke:#C3E7F0;stroke-width:0.5;stroke-linecap:round;stroke-linejoin:round;}
	.st9{fill:#00BDE0;}
	.st10{opacity:0.52;}
	
		.st11{opacity:0.2;fill:#50C6FF;stroke:#7ED1E2;stroke-width:5;stroke-linecap:round;stroke-linejoin:round;enable-background:new    ;}
	
		.st12{opacity:0.25;fill:#50C6FF;stroke:#64CADE;stroke-width:4;stroke-linecap:round;stroke-linejoin:round;enable-background:new    ;}
	
		.st13{opacity:0.3;fill:#50C6FF;stroke:#00BAD5;stroke-width:3.15;stroke-linecap:round;stroke-linejoin:round;enable-background:new    ;}
	.st14{fill:#50C6FF;stroke:#00BAD5;stroke-width:2.5;stroke-linecap:round;stroke-linejoin:round;}
	.st15{fill:#50C6FF;stroke:#58C7DD;stroke-width:1.95;stroke-linecap:round;stroke-linejoin:round;}
	.st16{fill:#50C6FF;stroke:#8FD6E5;stroke-width:1.25;stroke-linecap:round;stroke-linejoin:round;}
	.st17{fill:#50C6FF;stroke:#C3E7F0;stroke-width:0.5;stroke-linecap:round;stroke-linejoin:round;}
	.st18{fill:#50C6FF;}
</style>
<polygon class="st0" points="299.6,148.1 297.1,143.5 297,142.2 297.5,140.6 297.5,140.4 298,137.8 298.1,136.1 298.1,135.8 
	298,135.5 297.9,135.3 297.8,135.3 297.3,135.2 296.9,134.5 296.7,134.1 296.3,132.8 296.1,132 296.1,131.8 296,131.3 296.1,131 
	297,130.2 295.5,130.1 292.3,129.3 291.1,128.8 291,128.6 290.8,128.5 290.6,128.6 290.5,128.8 290.1,128.8 287.9,129.4 
	287.2,129.4 287.1,129.2 286.7,128.9 286.2,128 286,127.6 285.8,127.5 285.3,127.1 285.9,126.1 285.1,126 284.5,125.7 284.4,125.2 
	285,124.3 283.7,122.8 285.2,120.6 286.1,119.8 287.5,118.6 289.4,116.8 289.4,116.5 290.3,115.3 290.5,115.1 290.9,114.3 
	290.7,113.7 285.4,113.6 283.9,112.8 283.1,110.8 284.1,110.2 280.3,104.6 279.4,103.2 277.9,101.8 276.7,101.8 273.6,102.7 
	272.6,102.6 272.5,102.2 272.3,101.5 272.6,100.2 272.6,100 272.5,99.2 272.1,99 271.3,98.5 271.2,98.3 271.2,97.8 271.3,97.8 
	271.3,97.7 270.4,97.8 269.8,98 264.3,97.8 264.2,97.8 263.6,97.6 265.1,99.3 264.9,99.8 263.4,98 262.5,97.7 255.9,97.8 
	255.2,97.2 253.5,95.8 253.3,95.7 252.8,95.5 252.1,96 252,96.2 251.6,96.8 251.5,96.8 251.2,97.3 250.7,97.5 250.3,97.6 250,97.6 
	249.5,97.5 248.8,97.2 248.4,96.8 248.1,96.8 248,96.8 248.5,95.1 248.8,94 248.8,93.5 248.9,92.6 247.8,92.2 247.7,92.2 
	246.7,91.7 246.4,91.6 246.1,91.5 245.9,91.3 246,91.2 244.8,90.3 243.7,88.8 243.5,88.5 243.5,87.6 243.4,85.8 244.4,84.7 
	248.9,79.7 249.1,79.6 249.7,79.2 250.6,79.1 251,78.8 251.9,77.2 253.3,74.5 253.9,73.3 254.1,73.1 253.5,72.6 252.7,72.6 
	251,73.1 253.9,68.2 255.2,65.2 254.1,63.8 254.2,62.9 254.3,62.3 254.4,61.8 254.6,61.1 255.3,60.7 256.1,61.4 256.7,60.7 
	256.7,60.6 257.1,59.8 257.6,58.2 257.5,58.1 257.4,57.7 257.3,57.4 257.2,56.8 257.1,56.5 257.8,56.6 258.7,56.5 259.2,56.3 
	259.4,56.2 259.6,56.1 260.1,55.8 258.4,54 258.6,52.6 259.1,52.1 259.6,51.5 259.4,51 258.8,49.4 257.5,49.4 256.4,49.6 
	255.3,49.9 255.2,49.8 254.2,49.1 252.6,46.9 251.4,46.1 251,46 250.4,45.9 249,46.2 247.2,46.6 245.9,46.6 245.5,46.3 245.1,45.9 
	244.3,45.1 243.8,44.7 243.3,44.3 239,43.1 237.3,41.6 237,38.9 236.4,36.5 236.1,36.1 235,34.7 234,34.1 233.2,33.6 231.6,33.5 
	230.4,33.9 230,34.1 226.9,36.3 225.3,36.9 216.3,36.5 213.6,37.2 213.5,37.2 212.1,36.9 212.1,32.6 210.8,30.9 209.8,30.8 
	209.4,30.8 206.4,31 205.2,30.3 205.1,30.3 205,30.2 204.6,29.6 203.9,26.9 203.5,25.8 200.9,23 200.4,21.8 200.6,20.2 200.7,19.2 
	201.6,17.3 201.9,15.2 200.9,13.4 200.3,12.3 198.1,10.8 198,10.7 198,10.5 196.8,10.8 196.3,11.5 196.2,11.9 196.1,12.6 
	195.8,13.3 195.5,14 194.8,15.2 194.3,15.9 193.8,16.8 192.5,18.3 191.5,19.5 190.6,20.3 189,20.8 187.5,20 186.1,19.4 185.3,19.2 
	184.6,19 179.3,18.8 177.7,18.1 178.2,16.8 179,16.6 182.3,18.1 182.2,17.3 181.9,16 181.7,15.4 181.9,14.1 182.1,13.5 182.3,12.3 
	182.2,10.5 181.4,9.5 180.4,8.8 180.1,8.6 179.3,8.3 178.7,8.1 177.7,8 175.2,9.3 169.3,16.5 168.5,17.1 167.5,17.5 166.2,17.5 
	163.9,16.9 162.3,17.2 161.7,17.3 161.2,17.3 160.6,17.2 159.7,16.5 159.2,16.1 159.3,15.6 159.4,15 160.1,13.5 160.1,11.5 
	159.5,10.4 158.5,10.2 158.3,10.2 156.3,10.6 154.8,11.2 152.3,12.1 148.3,14.4 149.2,15.5 149,16.3 148.5,17.3 148.5,18.5 
	148.9,19.3 149.1,19.6 150.8,21.8 151.2,22.6 151.3,22.8 151,24.4 150.9,24.9 149.5,25.8 148.9,25.8 146,25.5 145.4,25.3 144.5,25 
	142.6,23.9 141.8,23.5 139.6,23.4 140.7,24.8 141.3,25.8 141.6,27 141.5,29.6 141.8,30.6 142.4,31.2 144.9,32.2 143.9,34.5 
	143.3,35.2 143,35.3 142.5,35.6 143.1,34.5 143.3,33.6 143.2,32.9 142.9,32.1 142,31 140.6,29.8 139.4,28.2 138.8,26 138.3,24.9 
	136.8,23.6 136.7,23.6 136.7,24 136.2,26.9 136.1,27.2 135.8,28 132.8,32.1 129,35.1 119.7,39.8 116.7,42.2 116.3,42.6 115.7,42.8 
	114.6,43.2 105.6,43.3 105.5,43.3 104.7,42.9 103.5,41.5 103.4,40.3 103.5,39 103.1,37.4 101.7,36.4 92.5,33.4 90.6,33.1 88.9,33.2 
	88.7,33.2 85.6,33.8 84.4,33.9 83.3,34.2 83.2,34.2 82.4,35.1 82.3,36 82.3,36.5 82.5,38 82.4,38.7 82.3,39.2 81.7,39.3 78.7,39.7 
	77.9,39.6 76.2,39.5 75.1,39 74.2,38.6 73.9,38.5 72.1,36.5 71.7,35.5 71.1,33.5 71.1,30.8 71.3,27.8 71.1,26.1 70.7,23.1 
	53.7,28.6 38.5,38.6 22.8,47.8 12.5,55.6 9.7,56.6 8.1,57.6 9.1,60 9.2,60.3 9.8,64.8 9.9,65.7 10.7,68.1 13.4,71.1 14.6,72.8 
	14.9,75.2 14.7,75.5 14.4,76 13.3,77.1 12.6,77.7 12.1,78.8 12.9,81.3 13.7,84 13.6,84.8 13,86.2 13,86.8 13.1,86.8 13.3,87.2 
	13.8,87.3 14.1,87.5 14.3,87.7 14.4,88 14.8,88.8 15.1,89.5 15.5,90.2 15.6,90.2 16,90.3 17.1,90.7 17.7,90.7 19.2,90.5 19.9,90.5 
	21,91 21.4,91.6 21.6,92.5 22.1,93.2 24.6,95.7 24.9,96 25.4,96.8 26.4,99.2 26.7,99.7 26.9,100 27.8,100.8 28.2,101.2 29,101.6 
	34.3,104 34.3,104.1 34.4,104.1 34.7,104.2 34.8,104.2 35,104.2 35.5,104.3 35.7,104.5 36.8,103.7 38.1,101.3 39.1,99.8 39.7,99.1 
	40.4,98.2 41.3,97.8 42.2,97.2 45.4,96.2 46.2,96.1 46.2,96 46.4,95.7 46.4,95.8 46.5,95.8 46.7,95.7 48.8,95.1 52.4,93.8 52.8,94 
	54.3,94.5 55.6,95.6 56.8,97.6 57,97.8 56.6,98.2 56.8,98.6 57.6,100.1 58.6,102.3 59.2,103.1 60.2,103.1 61.2,103.3 61.3,103.5 
	61.9,104.6 62.4,106.2 62.8,107.2 62.2,108.2 61.6,109.2 62.2,112.8 64.2,119.3 64.3,123.2 64.7,124.6 64.9,124.8 65.9,126.1 
	67,126.8 70.3,128.5 71.6,128.8 72.8,128.8 73.4,128.8 74.2,128.4 76.8,127.5 77.5,126.8 77.8,126.8 78.3,126.2 78.6,126 
	78.8,125.8 79.4,125.5 79.7,125.5 80.5,125.3 81.2,125.7 81.6,125.8 82.1,126.5 82,127.3 81.9,127.5 81.2,128.8 82.2,129.3 
	87,129.3 88.8,129.8 90.5,130.6 91.9,132.2 93.1,134.5 93.8,139 93.8,144.6 94.5,149.4 97.1,151.9 97.4,151.1 97.5,151 97.6,151.1 
	98,150.8 98.1,150.6 98.2,150.4 98.3,150.3 98.6,149.6 99.9,147.3 100.5,146.6 101,146.4 101.5,146.2 104.8,145.9 108,146.3 
	109.5,147.1 110.1,147.5 110.8,148 111.9,148.4 112.2,148.6 113.9,148.6 115.5,147.9 118.7,146.6 119.5,146.5 120.2,146.4 
	121.6,147 121.7,147 124.2,149.8 124.7,150.2 125.8,150.8 127.3,152.2 127.8,153.2 129.3,156.6 129.8,156.8 130.7,157.2 
	131.1,156.9 131.3,156.8 131.3,155.2 132.3,154.8 132.9,155.1 133.3,155.3 134,155.8 134.9,156.4 135.4,157.3 135.3,157.9 
	135.2,158.4 134.6,159.2 134.6,159.3 132.7,160.8 132,161.9 132,162 131.6,162.8 131.2,165 130.6,166.8 129.7,169.8 129.7,170.1 
	129.5,171.9 130.2,172.2 130.6,172.4 132.2,171.8 132.9,171.6 133.7,172 134.9,177.1 135.1,177.6 135.4,178.3 135.9,179.2 
	135.9,180 135.1,180.4 134.1,180.8 133.6,181.2 132.4,182.1 131.8,182.5 130.9,183.3 130.4,184 130.4,184.1 130.1,184.8 
	129.8,186.2 130.2,186.2 130.4,187.2 130.6,188.1 130.6,188.8 130.6,189.8 130.1,189.8 134.3,192.1 134.5,192.1 135.3,192.4 
	138.9,191.9 141.1,191.6 143.1,192.1 152.4,194.8 153.1,194.9 155.3,194.5 163.2,190.5 165.9,189.2 169,188.8 169.3,188.5 
	169.9,188.2 170.4,187 170.4,186.9 171,185 171.4,182.5 171.6,181.3 171.6,180.4 171.4,180.1 171.3,179.8 171.3,179.6 171.1,179.1 
	171.3,178 171.8,177 179.9,168.8 181.9,167.9 181.9,168 182.2,169.6 183,170 185.4,169.5 186.1,170.4 186.1,172.5 185.7,175 
	185.6,175.9 185.5,177 184.7,176.2 184.2,176.3 183.2,178.4 182.8,179.3 182.8,179.6 182.7,180.4 182.8,181.3 182.7,182.4 
	182.7,182.5 181.9,184.6 179.8,189.9 179.5,191.8 180.3,193.5 181.9,194.1 184,194.9 185.1,197.1 185.2,197.9 185.3,198.5 
	185.1,199.6 184.9,200 184.7,200.5 184.4,201.6 184.3,202 184.2,202.4 184.2,202.5 183.5,203.4 183.3,204.1 183.5,204.8 184.2,206 
	184.4,206.6 184.4,211 185.1,211.9 185.9,212 187,212.1 187.5,212 188.7,211.9 190.5,211.3 192.1,210.8 193,210.8 193.8,210.6 
	193.9,210.8 194,210.8 195,211 197.8,213.8 199.3,214.6 201.4,215.2 202,215.4 202.9,216.2 204.2,218.2 206.1,220.9 206.9,221.8 
	207.3,222 208.7,223 210.4,223.5 212.6,222.9 213.9,222.5 215.5,222.5 217.1,224.1 218.5,225.9 219,227.8 218.8,227.9 218.7,228.1 
	218.2,228.4 218.1,228.4 217.9,230.1 218,230.8 218.1,231.3 218.5,231.8 219.8,231.9 220.1,231.8 220.2,231.8 220.6,231.3 
	220.9,230.6 221.2,230.3 221.7,230.3 222.1,230.6 222.5,230.9 224.8,231.8 226.2,233 229.8,239.6 230.1,240.8 230.1,241.8 
	229.8,243 229.7,244 229.8,244.2 230.2,245.1 231.8,245.6 232.3,245.3 233.8,244.4 234.9,243.8 235.8,243 236.3,242.8 237.3,242.3 
	239.6,243.5 240.3,243.8 240.9,243.6 241.4,243.6 241.6,243.2 241.6,243.1 241.8,242.3 242.8,241.1 244.7,240.1 246.4,240.5 
	248,241.3 249.6,241.6 249.7,241.6 250.6,241.2 251.5,239.8 252.4,239.4 253.3,239.5 255,240.5 255.1,240.5 255.9,240.8 
	257.6,239.8 259.4,238 259.7,237.2 260.1,236.2 259.6,235.9 258.9,235.5 259.7,234.8 260.3,233.6 260.7,232.4 261.3,230.9 
	261.8,230.1 262.6,229.5 263,228.4 262.8,227.8 262.6,226.9 262,226.4 260.5,226.2 260,225.8 259.9,225.5 259.7,225 259.8,224.5 
	260,224.1 260,223.4 260.1,222.8 260.5,222.3 260.7,222 260.8,221.9 260.7,221.4 260.7,221 260.2,220.3 259.7,220.3 259.6,220.4 
	259.4,220.5 258.9,220.4 258.7,220.3 258.1,219.8 257.1,219.4 256.7,219.1 256.7,218.8 256.5,217.2 256.4,216.6 255.1,214 
	254.6,213.1 254.5,213 254,212.4 253.4,212 253.1,211.9 252.3,211.8 252.2,211.8 251.5,211.4 250.7,210 250.5,209.4 250.2,208.8 
	250.1,207.3 250.5,206.1 251.4,205.6 250.7,204.9 250.8,204.5 251,204.2 251,204.1 251.1,204 251.1,203.3 253.1,203.5 252.3,202.4 
	251,201.4 250.7,201.2 249.8,200.8 250,200 250.1,199.6 251.1,198 252.8,195.1 253,194.5 253.1,194.3 253.2,194 253.3,193.8 
	253.5,193.4 253.5,193.1 253.6,192.9 254.1,192.3 254.6,192 255.7,191.8 256,191.4 256.4,191 257.3,189.4 257,188.8 256.4,188.2 
	256.5,186.5 257,186 258.5,185.3 259,184.8 259.1,184.8 259.1,184.6 259.3,183.8 259.3,182.2 259.2,181.3 259.4,180.8 259.6,180.5 
	260.8,179.5 261.1,179.1 261.3,178.8 261.4,178.4 261.4,178 261.5,177.2 261.6,176.2 261.9,175.4 262.4,174.9 263.3,174.2 
	266.1,172.8 267.3,171.8 267.8,170 267.8,169.8 268.1,168.4 268.8,167.3 269.5,167.2 270.4,167.1 271.5,166.2 271.6,166.3 
	272,166.8 272.2,167.9 272.7,168.8 273.3,169 273.6,169.1 274.5,169.2 276.2,168.9 276.3,168.8 276.9,168.5 277.3,168 277.9,168 
	278.9,168.8 279,168.9 279.2,170 279.2,171.1 279.3,171.8 279.4,172.1 280.5,172.5 281.2,171.8 281.3,171.2 281.4,171 281.2,170.3 
	280.4,169.8 280.6,169.1 280.7,168.5 280.9,167.8 280.9,167.8 281,167.6 281.5,167.3 281.6,167.2 283.2,167.1 283.5,166.8 
	283.7,166.8 284.2,165.6 284.2,164.3 283.9,163.2 283.8,162.9 282.8,161.8 283.5,160.8 283.9,160.4 285.2,159.5 285.4,159.1 
	285.9,158.3 287.5,157.5 288.7,157.3 290.6,156.8 292,155.6 291.6,154.5 291.8,153.4 292.4,152.2 292.7,151.9 293.1,151.3 
	293.7,150.9 294.1,150.6 295,150.8 295.2,150.8 295.8,151 296.9,151.2 298.9,150.8 299.2,150.4 299.8,149.8 "/>
<g class="st1">
	<g>
		<circle class="st2" cx="236.5" cy="105.8" r="9.8"/>
		<circle class="st3" cx="236.5" cy="105.8" r="9.8"/>
		<circle class="st4" cx="236.5" cy="105.8" r="9.8"/>
		<circle class="st5" cx="236.5" cy="105.8" r="9.8"/>
		<circle class="st6" cx="236.5" cy="105.8" r="9.8"/>
		<circle class="st7" cx="236.5" cy="105.8" r="9.8"/>
		<circle class="st8" cx="236.5" cy="105.8" r="9.8"/>
	</g>
	<circle class="st9" cx="236.5" cy="105.8" r="13"/>
</g>
<g class="st10">
	<g>
		<circle class="st2" cx="236.5" cy="105.8" r="8"/>
		<circle class="st3" cx="236.5" cy="105.8" r="8"/>
		<circle class="st4" cx="236.5" cy="105.8" r="8"/>
		<circle class="st5" cx="236.5" cy="105.8" r="8"/>
		<circle class="st6" cx="236.5" cy="105.8" r="8"/>
		<circle class="st7" cx="236.5" cy="105.8" r="8"/>
		<circle class="st8" cx="236.5" cy="105.8" r="8"/>
	</g>
	<circle class="st9" cx="236.5" cy="105.8" r="10.7"/>
</g>
<g>
	<g>
		<circle class="st11" cx="236.5" cy="105.8" r="5.3"/>
		<circle class="st12" cx="236.5" cy="105.8" r="5.3"/>
		<circle class="st13" cx="236.5" cy="105.8" r="5.3"/>
		<circle class="st14" cx="236.5" cy="105.8" r="5.3"/>
		<circle class="st15" cx="236.5" cy="105.8" r="5.3"/>
		<circle class="st16" cx="236.5" cy="105.8" r="5.3"/>
		<circle class="st17" cx="236.5" cy="105.8" r="5.3"/>
	</g>
	<circle class="st18" cx="236.5" cy="105.8" r="7"/>
</g>
</svg>
