<?xml version="1.0" encoding="utf-8"?>
<!-- Generator: Adobe Illustrator 21.0.1, SVG Export Plug-In . SVG Version: 6.00 Build 0)  -->
<svg version="1.1" id="Layer_1" xmlns="http://www.w3.org/2000/svg" xmlns:xlink="http://www.w3.org/1999/xlink" x="0px" y="0px"
	 viewBox="0 0 783.1 400.6" style="enable-background:new 0 0 783.1 400.6;" xml:space="preserve">
<style type="text/css">
	.st0{fill:#333951;}
	.st1{opacity:0.2;fill:none;stroke:#7ED1E2;stroke-width:5;stroke-linecap:round;stroke-linejoin:round;enable-background:new    ;}
	
		.st2{opacity:0.25;fill:none;stroke:#64CADE;stroke-width:4;stroke-linecap:round;stroke-linejoin:round;enable-background:new    ;}
	
		.st3{opacity:0.3;fill:none;stroke:#00BAD5;stroke-width:3.15;stroke-linecap:round;stroke-linejoin:round;enable-background:new    ;}
	.st4{fill:none;stroke:#00BAD5;stroke-width:2.5;stroke-linecap:round;stroke-linejoin:round;}
	.st5{fill:none;stroke:#58C7DD;stroke-width:1.95;stroke-linecap:round;stroke-linejoin:round;}
	.st6{fill:none;stroke:#8FD6E5;stroke-width:1.25;stroke-linecap:round;stroke-linejoin:round;}
	.st7{fill:none;stroke:#C3E7F0;stroke-width:0.5;stroke-linecap:round;stroke-linejoin:round;}
	.st8{fill:#00BDE0;}
</style>
<g>
	<g>
		<g>
			<path class="st0" d="M346.7,131.1l-3.4,4.5l-2.3,2.3l-4.5,2.5l-0.7,2c0,0-1.8,1.8-1.6,2.9s0.2,3.2,0.2,3.2s-3.2,2.9-4.5,3.8
				c-1.4,0.9-3.2,2.9-3.2,2.9s-1.1,1.4-1.8,1.8c-0.7,0.4-1.8,1.8-2.7,3.2s-1.8,2.3-2.3,2.9s-1.8,2.3-2.5,4.7
				c-0.7,2.5-2.5,5.4-2.5,5.4l-0.5,1.1c0.2,3.8,0.2,4.5,0.7,5.9s0.9,0.9,0.5,3.8c-0.5,2.9-0.5,4.1-0.9,5.4c-0.5,1.3-1.8,3.8-2.3,5
				c-0.5,1.1,0.9,3.1,0.9,3.1s0.7,2.9,0.2,3.6c-0.5,0.7,0.2,2,0.2,2s2.7,1.6,3.6,2.5s2.5,2.3,2.7,2.9c0.2,0.7,2,3.8,2.3,4.5
				s2,3.1,2.5,3.8s2.7,3.2,2.7,3.2s2.9,2.2,3.6,3.1c0.7,0.9,2.7,1.4,3.4,2c0.7,0.7,2.3,0.4,3.2,1.1c0.9,0.7,2.7-0.5,3.6,0
				c0.9,0.4,3.4-0.4,4.1-0.9s2.3-2,3.4-1.4c1.1,0.7,1.8,0,2.7,0.2c0.9,0.2,2.3-0.9,3.1-0.9c0.9,0,3.2-0.9,3.8-0.9
				c0.7,0,2.9-1.4,3.8-1.4s2-0.9,3.1-0.4c1.1,0.4,0.7-0.9,2.7-0.2s2.7,0,3.4,0.7c0.7,0.7,1.6,0,2.3,0.9c0.7,0.9,1.8,1.6,2,2.5
				s1.6,1.8,1.6,1.8l1.4,0.2c0,0,1.8-1.4,2.3-0.4c0.5,0.9,2.5,0.7,2.5,0.7l2,2.3l0.7,0.9c0,0,1.4,3.6,1.1,5c-0.2,1.4-0.2,4.3-0.9,5
				c-0.7,0.7-1.1,3.6-1.1,3.6s-0.9,0.9,1.1,2.7s3.4,3.4,4.1,4.3c0.7,0.9,2.5,3.4,2.7,5s0.7,2.5,1.6,4.5s2,2.3,2.3,4.5
				c0.2,2.3,0.7,2.3,0.5,3.8c-0.2,1.6-0.9,1.8-0.2,2.9c0.7,1.1,1.6,3.2,1.4,3.8c-0.2,0.7-0.7,3.6-0.7,3.6l-0.5,1.4l-2,3.8l-1.4,2
				c-0.5,1.6-1.4,3.2-1.1,5.4c0.2,2.3-1.1,2.3,0.7,4.5c1.8,2.3,2.7,4.7,3.8,6.8c1.1,2,1.8,4.1,2,5.4c0.2,1.4,1.1,1.8,1.6,3.6
				c0.4,1.8,0.7,2.7,0.7,3.8c0,1.1-0.2,4.1,0.2,4.7c0.4,0.7,0.7,2.7,0.9,3.6c0.2,0.9-0.7,1.1,0.7,2.7c1.4,1.6,2.3,2.5,3.2,3.6
				s0.7,0.7,1.4,2.3c0.7,1.6,1.6,2.5,1.8,3.8c0.2,1.4,0.4,4.7,1.1,6.3c0.7,1.6,1.6,3.2,1.6,3.2s2.5,1.6,3.4,1.4s2.7-2.2,4.1-1.6
				c1.4,0.7,2.5,0,3.6,0s2.3-1.4,3.4-1.4s2.7-1.8,3.6-1.4s2-0.5,3.1-1.6s1.8-2,3.8-3.8s1.8-1.8,3.2-2.9c1.4-1.1,2.7-3.6,4.3-4.1
				s2-2,2.5-3.1s0.7-1.8,1.4-2.7c0.7-0.9,0.2,0.2,1.4-2.7c1.1-2.9,2.5-4.1,3.6-4.7c1.1-0.7,1.8-2,2.5-2.3s1.8,0.7,1.4-1.4
				c-0.4-2,0-5-0.4-5.6c-0.5-0.7-1.1,1.6-0.9-1.8s2.7-6.8,2.7-6.8s3.4-4.3,4.5-5s1.4-1.4,2.9-2.3c1.6-0.9,5-3.1,5-4.3
				s1.4-4.1,1.4-4.7c0-0.7,0-1.4-0.4-5.2c-0.5-3.8,0.4-2.9-0.9-6.5s-1.6-8.1-2.5-9.2s-0.5-4.1-0.5-5s1.6-3.2,2.3-4.1
				c0.7-0.9,3.6-4.5,3.6-4.5s4.5-5.2,6.1-7.7s3.2-4.7,4.3-5.6c1.1-0.9,3.8-2.9,5.4-5.2s4.7-6.5,5-7.2c0.2-0.7,2-2.9,2-2.9
				s2.5-2.9,2.9-4.5s2.7-10.4,2.2-9.9c-0.4,0.5-3.1,0.9-4.1,1.1c-0.9,0.2,1.4,1.1-5.2,0.7c-6.5-0.5-9.9,0.7-9.9,0.7
				c-2-0.5-3.6,1.8-4.3-1.4c-0.7-3.1-1.1-5-2.5-7.2c-1.4-2.3-2.3-3.2-4.3-6.1c-2-2.9-1.8-1.6-3.6-3.8c-1.8-2.3-2.3-1.6-3.4-4.5
				s-2-1.8-3.4-5.9c-1.4-4.1-2.3-4.5-2.9-6.8c-0.7-2.3-1.6-2.9-2-5c-0.5-2-5.6-12.4-6.3-13.1c-0.7-0.7-1.8-4.3-1.6-3.6
				c0.2,0.7,3.4,2.9,3.4,2.9s1.8-0.7,2.5-0.7s3.4,2.5,3.4,3.4s4.7,5.2,5.9,8.3c1.1,3.2,2.5,5.4,2.7,6.3s2.5,4.5,3.4,5.9
				s3.8,4.1,4.3,5.4s4.7,5.9,4.7,8.8s2,6.8,2.3,7.7s4.3,2,4.3,2l5.4-1.4c0,0,8.1-5.2,9-5.2s8.1-3.4,8.1-3.4s2.9-2.7,5-4.3
				c2-1.6,4.3-4.5,4.7-5.9s1.3-1.6,3.2-3.6c1.8-2,4.3-4.1,2.7-5.4c-1.6-1.4-2.5-0.9-4.7-3.2c-2.3-2.3-2-1.8-3.6-4.7s0.2-6.3-3.2-2.9
				c-3.4,3.4-2,4.3-5.4,5s-4.7,2.9-6.3,0.7s-3.1-0.9-4.1-4.3c-0.9-3.4-1.6-3.6-1.8-5c-0.2-1.4,0-1.4-1.8-4.7
				c-1.8-3.4-0.5-8.6,0.7-5.6c1.1,2.9,2.9,3.4,5.9,5.4c2.9,2,4.3,3.6,7,3.8s5,0,5.4,0.4c0.5,0.5,0.9-0.2,2,0.2
				c1.1,0.5,1.6-0.7,2,1.1c0.5,1.8,2.9,2,4.1,3.2c1.1,1.1,1.1,0.7,4.1,1.1c2.9,0.5,7,0.5,7,0.5l4.3-0.2l5,0.4c0,0,3.6,2,4.5,2
				s1.1,2.5,3.4,3.8c2.3,1.4,2.7,1.6,4.1,3.2c1.4,1.6,1.1,2.3,2.9,3.8c1.8,1.6,4.7-0.2,5.2-0.9c0.4-0.7,2.7-1.8,2.3,0
				c-0.5,1.8,2.2,1.1,1.6,5.4c-0.7,4.3-1.1,3.1,0,6.1c1.1,2.9,6.1,11.9,6.3,14.6c0.2,2.7,1.6,1.8,1.8,4.3s1.6,3.4,1.6,5.2
				s1.6,2.3,1.8,3.6c0.2,1.4,2.7,0.2,3.4,0s3.8-3.2,3.8-3.2s1.4-0.4,1.1-2.7c-0.2-2.2,0-1.8,0-5.2s-1.3-3.4-0.7-6.8
				c0.7-3.4,2.5-5.4,2.9-7c0.5-1.6,2.3-4.3,3.2-4.5s5.9-2.7,7-4.3s2.9-3.4,4.7-5.2s5-4.1,5.6-3.4c0.7,0.7,0.5,0.4,1.6,0.4
				s3.2,0.9,4.7,1.1c1.6,0.2,4.7,4.1,5.4,6.1s0.2,1.6,2.7,4.5s4.7,1.1,4.7,4.7s0,3.4,1.1,4.7c1.1,1.4,2.5-2.5,3.8-2s1.6-0.4,2.7,3.2
				c1.1,3.6,1.8,3.6,2,7.2c0.2,3.6-0.2,0.2-0.2,3.1c0,2.9-0.2,3.2,0.2,5.9s2,3.6,1.8,4.1c0,0,1.3-3.8,0.9-6.5
				c-0.4-2.7,0-6.5,1.1-7.7c1.1-1.1,2.3-2.3,3.2,0.7c0.9,2.9,1.4,0.7,3.4,4.1c2,3.4,3.8,2.7,4.1,4.3s1.4,1.8,2.9,3.2
				c1.6,1.4,2.9-0.2,4.7-1.6c1.8-1.4,6.8-6.3,7-8.3s2.3-1.6-1.4-6.8c-3.6-5.2-3.6-7-7.4-10.1c-3.8-3.2-6.1-3.4-3.1-7.4
				c2.9-4.1,4.3-6.8,6.1-5.6c1.8,1.1,5,0.9,5,5.4s-0.9,9.5,2.3,4.1s4.7-8.6,3.8-7.7c-0.9,0.9,2-1.8,2-1.8s0.2-2,4.1-2.9
				c3.8-0.9,5-1.4,6.3-2c1.3-0.7,5.2-5.2,5.9-7.2s2.5-5.6,2-7.2c-0.5-1.6-2.7-9.2-3.2-9c-0.4,0.2-0.2,0.2-3.1-2.9
				c-2.9-3.2-5-5.4-5.4-6.8c-0.5-1.4-1.6-1.6-0.2-3.4c1.4-1.8,2-1.6,2.3-3.2c0.2-1.6,2-2.9-1.4-1.8s-0.9,0.5-3.8,0.2
				c-2.9-0.2-10.6,1.6-6.8-3.2c3.8-4.7,4.9-7.7,5.6-7.7c0.7,0,4.1-3.8,4.3-0.2c0.2,3.6,1.6,2.7,1.8,5s4.7-2.5,4.7-2.5
				s1.6,0.4,2.7,1.6c1.1,1.1,1.1,4.7,1.1,4.7s-0.9-1.1,1.6,0.7c2.5,1.8,5.2,0.9,5.2,4.7s0,4.1,1.6,5s3.2,0.5,4.5-0.7
				c1.3-1.1,3.6-5.2,3.6-5.2s0.2-1.6-3.4-3.8c-3.6-2.3-5.9-3.8-7.2-5c-1.4-1.1-0.9-4.5,0.4-5.9c1.4-1.4,2-2,1.6-3.8
				c-0.5-1.8,0.7-3.2,4.1-2.9c3.4,0.2,4.1-0.2,4.1-0.2s0.7,0.4,0.7-0.9s4.3-7.7,3.1-7.7c-1.1,0,0.2-1.6-0.5-4.1s2.3-6.3-0.2-8.1
				c-2.5-1.8-3.2-2.7-4.7-5.4c-1.6-2.7-1.4-3.2-7.2-3.8c-5.9-0.7-8.6,1.4-9.9-0.4c-1.4-1.8-2,2.7-2.9-2.7c-0.9-5.4,1.4-9,1.4-9
				s3.6-2.3,4.5-3.8c0.9-1.6,4.5-2.3,7.4-1.1c2.9,1.1,7.2,0.9,10.8,1.6c3.6,0.7,3.4,2.9,5.2,0c1.8-2.9,0-4.3,1.3-5.9
				c1.4-1.6,2.9-4.1,4.1-2.5c1.1,1.6,3.4,3.2,5.2,1.1c1.8-2,2.5-2.3,2.5-2.3l0.9,0.9c0,0,2-1.1,2,0.9s2,4.3,0.9,5.9
				c-1.1,1.6-2.7,1.4-2.7,5.2c0,3.8,0,3.2,2.5,6.3c2.5,3.2,4.1,0.4,4.5,3.8c0.5,3.4,0.9,2.7,3.4,5s2,2.3,3.8,3.6
				c1.8,1.4,2.7,2.7,2.7,0.5s0.2-3.4,0-5.4s1.8-3.6,0.4-7c-1.3-3.4-0.2-3.2-2.9-5.6c-2.7-2.5-4.5,0.5-5.4-3.2
				c-0.9-3.6,4.3-5.2,5.6-5.6c1.3-0.4,3.4-3.2,3.8-1.3c0.5,1.8-3.4,8.3,3.2,1.3c6.5-7,3.6-4.1,3.6-4.1s3.4-0.5,4.1,0
				c0.7,0.5,2.5-2,1.8-1.8s-7.2-3.6-7.2-3.6l-4.7-2.7c0,0,1.6-1.1,2.7-0.9c1.1,0.2,1.4-2.3,2.5-2.5s8.8,1.6,10.4,2.5
				c1.6,0.9,7.2,1.1,6.5,0.7c-0.7-0.5-4.3-3.2-4.5-4.1c-0.2-0.9-8.1-2.7-10.6-2.5s-4.7,0.9-6.8,0.2c-2-0.7-5-2.5-6.5-2.5
				c-1.6,0-21.4-3.8-22.3-3.6s-2.3,4.5-2.9,3.8s-1.8-0.7-5-1.6c-3.1-0.9-7.4-1.6-13.1-2c-5.6-0.5-9.5,0.5-11-1.4
				c-1.6-1.8-5-1.1-8.8-1.4c-3.8-0.2-8.3,0-10.4,0s-6.8-0.2-7.9-0.5s-2.5-1.8-3.8-2c-1.4-0.2-1.1-0.7-3.8-1.1
				c-2.7-0.5-2.5-3.4-3.4-0.9s-0.5,1.8-1.8,2.7c-1.4,0.9-2.7,2.7-3.6,2.7c-0.9,0-4.5,0.2-5.2-0.2c-0.7-0.5-1.8-0.9-4.1-0.9
				s-2.3,0.2-5.2-0.2s-5.2-0.2-7.9-1.6s-2.7-2.3-5-2c-2.2,0.2-2.2-0.5-5.4-0.5s-7,1.8-9,2s-6.5-0.2-8.1-0.9c-1.6-0.7-2-2.3-7.9-1.6
				c-5.9,0.7-9.2,0.7-8.1-1.1c1.1-1.8,2.5-3.6,3.2-3.8c0.7-0.2,2.3-1.4,1.1-1.8c-1.1-0.5-2.3-1.1-5-1.4c-2.7-0.2-2.5,0.9-6.5,0.5
				c-4.1-0.5,2.3-1.6-6.1-1.4c-8.3,0.2-10.4,0.9-11.3,0.9c-0.9,0-2-1.8-4.3,0.9s-5.4,4.3-9.9,4.5c-4.5,0.2-4.7-0.5-9,1.1
				s-7-0.5-6.1,3.2c0.9,3.6,2,5,2,5.6s-2,5.2-4.5,2.5s-7-13.3-5-6.1s6.5,9.7,2.3,10.8c-4.3,1.1-3.8-0.5-4.5-0.9
				c-0.7-0.5,0-3.6-0.2-5.4c-0.2-1.8-0.7-2.9-1.6-3.8s-0.7-2.3-2.5-2.7c-1.8-0.5-0.2-1.4-3.2-1.4s-5.4-1.8-4.7,2.3
				c0.7,4.1,1.3,1.4,3.1,5.2s5.2,1.1,2.7,3.8s-9,1.8-10.6,0.7s-1.1,0.5-4.1-1.6c-2.9-2-2-3.6-5.4-2c-3.4,1.6-4.5,4.5-5.9,3.4
				s-4.5,1.6-5.6,0.2c-1.1-1.4-5.6-1.4-6.5,0c-0.9,1.3-3.6,1.1-7.4,2.9c-3.8,1.8-2.7,0.2-7.4,4.1c-4.7,3.8-7.4,7-9,4.5
				s-10.1-6.8-6.8-7.4c3.4-0.7,5-2,6.8-0.5s4.7,1.1,5.2,0s2.5-2.3-0.2-3.6c-2.7-1.4-2.9-0.5-7.2-2c-4.3-1.6,0-1.1-5.9-2
				s-8.3-1.3-9.9-1.8s-3.8,0-6.1-0.2c-2.3-0.2-3.8-0.7-5.9-0.5c-2,0.2-3.1-0.2-5.9,1.8s-4.7,2.9-6.5,4.5s-6.5,4.7-7.9,5.9
				c-1.4,1.1-6.1,4.7-6.5,6.1s0.5,2.5-1.4,3.4c-1.8,0.9-3.6,0.9-5,1.1c-1.4,0.2,0-2-1.4,0.2c-1.4,2.3-0.9,10.4,0.2,9.2
				s0.5-4.7,5.4-1.3c5,3.4,8.1,2.9,7.9,6.1s3.4,2.9,3.8,3.6c0.5,0.7,2.7-0.9,2.7-0.9s5-3.2,5-4.7c0-1.6,3.2-5.2,3.2-5.2
				S406,59,406,56.7s0.7-2.9,1.1-5.2c0.5-2.3-2.5,0,4.3-4.3s7.2-1.3,7.2-1.3s0.9,0.9-0.2,2.3c-1.1,1.4-3.2,5-3.6,5.4
				c-0.5,0.5,2,4.1,3.1,4.1s3.4-0.9,4.7-0.7c1.4,0.2,3.6-0.7,4.3-0.2c0.7,0.5,2.3,1.8,1.1,2.9c-1.1,1.1-3.6,2.5-5.4,2
				c-1.8-0.4-4.5-3.6-2.9,0.9s-0.2,5.6-1.6,5.4c-1.3-0.2-4.3-2.5-3.8,0.9s-2.9,5.6-3.6,5.6s-2-0.2-2-0.2s-2-0.2-3.2-0.2
				c-1.1,0-3.4,1.1-4.1,2s-1.6,0.2-2.7,0.2s0-1.4-2.3-1.8s-3.6-0.9-5,0s-3.4,1.3-4.3,0.7c-0.9-0.7,0.5-2.3-1.4-1.3
				c-1.8,0.9-3.2,3.4-3.8,3.6c-0.7,0.2,2,0-0.7,0.2s-3.8,0.9-5.2,1.4c-1.4,0.5,0.5,3.2-2,4.1s-0.7-1.1-3.2,0.9s-2.9,3.8-3.8,4.1
				c-0.9,0.2-0.7,0.7-2.7,0.9s-1.8,0.4-2.9,0.7c-1.1,0.2,0.2,0.7-2.3,0.2c-2.5-0.4-4.3,0.5-3.8,1.4s8.8,3.4,2.5,3.2
				c-6.3-0.2-4.3,0.9-2.9,1.8s2,1.8,2.7,2s1.8,2.9,1.8,2.9s1.8-0.2,0.7,1.3s0.5,2-0.7,4.1c-1.1,2-1.1,0.7-2,1.1s-2.3,2-4.7,0.7
				c-2.5-1.4-4.3-2-7.2-2.3c-2.9-0.2-0.9-0.7-2.9,0.9s-2.5,3.4-2.3,5.4s0.5,4.7-0.2,6.1c-0.7,1.3-0.7,2.7-0.2,4.7s1.8,2.9,1.8,2.9
				s3.2,0.4,3.8,0.7c0.7,0.2,2-0.4,3.8,0.7c1.8,1.1,3.6,1.6,4.7,0.2c1.1-1.3,5.6-2.9,7-4.3s2.3-1.8,1.6-3.2s1.4-4.7,2.5-5.4
				s3.6-1.4,3.6-1.4l2.7-4.1c0,0,2.3-2.5,3.4-2.3s7.4,2.5,7-0.4c-0.5-2.9,0.5-3.8,1.1-2.7s2.5,0.7,2.5,0.7s0.9-0.4,1.6,0.2
				c0.7,0.7,1.6,3.6,2.9,4.3c1.4,0.7,2.5,1.4,3.4,1.8c0.9,0.5,1.8,0,3.6,1.6c1.8,1.6,3.6,2.5,3.8,3.2c0.2,0.7,1.8,2.3,1.8,2.3
				s1.6,0.4,1.1,1.4c-0.5,0.9-2.7,3.6-3.8,4.1c-1.1,0.4-4.1-0.5-2.9,0.4c1.1,0.9,2.7,2,3.4,1.3c0.7-0.7,5-5.2,5-5.2s-0.2,0.2,0-1.1
				c0.2-1.3,0-2.9,1.1-2.3c1.1,0.7,1.8,1.6,2.3,0.7s0.9-0.4-0.2-1.1s-3.8-4.5-5.2-4.7c-1.4-0.2-4.7-2.5-4.7-2.5s-0.7-0.7-2.3-2.5
				c-1.6-1.8-2-1.4-2.5-2.9c-0.4-1.6-1.8-3.6,0.7-3.2s4.1,2,6.3,3.4s1.8,1.8,3.8,3.2s2.3,2.7,3.8,2.5c1.6-0.2,3.4,0.9,3.4,2.9
				s0.4,4.3,0.9,4.7c0.5,0.5,1.8,1.4,2.3,2.3s1.4,3.2,2,4.1c0.7,0.9,1.4,1.6,2,2.7c0.7,1.1,0.9-0.2,1.6,0.2c0.7,0.4,1.6,0.2,1.6-0.7
				s0.2-2.5,0.2-2.5s3.2-0.9,2.3-1.4c-0.9-0.4-3.6-3.2-3.4-4.1s0-2.7,1.1-2.5s2.3,2.3,4.7,0.4s5.4-2.7,4.5,0s0.2,3.2,0,6.1
				s0.9,2,2.5,3.6s2.7,1.8,3.8,2.3c1.1,0.5,2.9,0.2,4.7,0.5c1.8,0.2,2.9-0.7,4.5-0.2c1.6,0.4,5.2-0.2,5.9,0.2
				c0.7,0.4,3.4-0.9,3.6,0.7c0.2,1.6,1.1-0.2,0.5,3.4s-1.6,6.1-1.6,6.1c-2.5,4.7-3.4,5.9-4.5,6.1c-1.1,0.2-1.8,0.9-3.8,0.7
				s-4.5,0-7.4-0.7s-8.3,0.7-10.6-0.7c-2.3-1.4-5.4-0.2-6.8-1.8s-3.6-1.4-4.5-2.3c-0.9-0.9-1.4-3.4-1.4,0.2c0,3.6-2,3.8-2.5,5.6
				s0.7,0.9-1.8,0.7s-3.2,1.1-6.8-1.6c-3.6-2.7-5.4-2.7-7.2-3.8c-1.8-1.1-3.6,2-5.4-1.6s-4.3-0.7-4.5-3.6c-0.2-2.9,0-2.7,0.2-4.5
				s2.7-3.4,1.6-4.1s-0.2-1.8-1.8-1.1c-1.6,0.7-3.8,0.9-5.6,1.6c-1.8,0.7,4.1,0-4.7,0.7c-8.8,0.7-11.3,1.6-11.3,1.6
				s-0.7-0.4-1.8,0.4c-1.1,0.9-2.7,2.3-4.3,1.6c-1.6-0.7-2.5-0.5-3.8-0.2c-1.4,0.2-2.3-1.1-3.8,0c-1.6,1.1-3.4,1.6-4.1,1.1
				C347.9,132.9,346.7,131.1,346.7,131.1z"/>
			<path class="st0" d="M497.3,279.2c-0.7,2.5-3.2,6.1-3.2,6.1l-4.5,2.3c0,0-1.6,1.4-2.5,1.6s-3.2,1.4-3.2,1.4s-2-0.5-1.4,1.6
				c0.7,2,0.9,4.5,0.7,5.2c-0.2,0.7-0.2,2-0.2,3.8s-0.7,4-1.8,4.5c-1.1,0.5-2.3,0.9-2,2.5c0.2,1.6,0.2,6.3,0.2,6.3l2.9,4.5
				c0,0,0.9-0.7,2.7-0.7c1.8,0,3.6-1.6,3.6-1.6s2,0.4,1.8-2c-0.2-2.5,0.9-5.4,0.7-6.1c-0.2-0.7,2-3.6,2-4.3c0-0.7,2.3-3.8,2.3-5
				c0-1.1,1.6-2.9,1.8-4.3c0.2-1.4,0.5-4.5,0.9-5.4c0.5-0.9,0.7-1.8,0.7-2.7s0-2.7,0-2.7L497.3,279.2z"/>
			<path class="st0" d="M673.5,309.6c-0.7,0.9-1.1,10.6-1.6,11.7s-1.4,7-0.9,8.3c0.4,1.4,1.1,6.3,0.7,7.9c-0.5,1.6,0.2,6.5-0.9,6.3
				c-1.1-0.2-1.6,0.2-1.6,0.9c0,0.7,1.6,2,1.6,2s2.7,0,3.8-0.2s3.4-1.4,5.2-1.4s2.9-1.4,4.5-1.4s5-1.1,5.9-0.7s2.3-2.7,3.8-2
				c1.6,0.7,5-1.6,6.5-1.6c1.6,0,2.3-2.5,4.1-2s5.2-0.9,6.8-0.2c1.6,0.7,4.1-2.3,5.2,0c1.1,2.3,4.5,3.2,4.5,4.3s-0.2,3.6-0.2,3.6
				l2.7-0.2c0,0,4.3-2.7,5-2.7s2.3-2.3,2.3-1.1c0,1.1-1.4,3.6-1.8,4.7c-0.5,1.1,0.4,2.5,0.4,2.5s2.3,1.1,1.4,3.1
				c-0.9,2,0.2,1.6,0,3.2s0,0.9,0.9,1.8s2.5,2.5,3.8,2.3c1.4-0.2,1.8-1.6,2.9-0.9c1.1,0.7,3.4,0.2,4,1.1c0.7,0.9-4.3,3.1,4.3-0.7
				c8.6-3.8,9.5-4.7,10.6-6.1s2.5-2.7,3.4-3.6s0.2-0.7,2.9-2.7s2.7-1.1,5.2-5c2.5-3.8,4.3-5.2,4.7-5.9c0.5-0.7,1.3-0.9,1.6-3.6
				c0.2-2.7,2-5.2,2-6.1s0.7-2.2,0.5-3.8c-0.2-1.6,0.9-3.8-0.5-6.1c-1.4-2.3,0.7-3.1-1.4-4.1c-2-0.9-3.4-0.4-3.8-2
				c-0.5-1.6-2.3-1.4-2.9-5.6s-3.4-4.7-3.4-4.7s-2.7-1.1-2-1.6s0.9-3.6,0.7-4.5s-0.2-2.9-0.9-4.3s-1.1-3.2-1.8-4.7
				c-0.7-1.6-1.8-2-2.3-3.8s-1.1-2.5-1.3-2.9c-0.2-0.5-0.7-2.7-1.1-0.2c-0.5,2.5-1.4,7.2-1.4,7.2s-1.8,3.8-2.5,5
				c-0.7,1.1-1.3,4.1-2.5,3.8c-1.1-0.2-1.8,1.1-2.7,0.9s-2.3,0.2-2.9-0.4c-0.7-0.7-2.5-2.5-3.4-2.7s-1.6-2-2.3-2s-1.8-1.6-1.6-2.5
				s0.4-2.9,0.7-3.8c0.2-0.9,1.6-2.9,1.6-2.9s0-1.4-1.1-1.4s-1.4,0-3.8-0.2c-2.5-0.2-3.1-0.5-4.1-0.5c-0.9,0,0.9-0.5-1.6,0.2
				s-3.6,2.5-5.2,4.1c-1.6,1.6-0.2,1.1-1.6,1.6c-1.4,0.5-1.1-1.1-2,1.4s0.5,3.1-0.2,3.6s-5.4-1.6-5.4-1.6s1.1-0.2,0.2-1.4
				c-0.9-1.1-1.8-2.7-3.1-2c-1.4,0.7-2.5,1.1-3.4,2.3c-0.9,1.1-0.9,2-1.6,2.9s-2.5,0.9-2.7,1.8s-0.2,3.2-0.9,3.4
				c-0.7,0.2-0.9-0.9-1.6-1.1c-0.7-0.2-0.5-2-0.9-0.9c-0.5,1.1-0.9,0.9-1.6,2.7c-0.7,1.8-0.9,3.4-1.6,3.6c-0.7,0.2,0,0.5-2,1.6
				s-2.5,1.1-5.4,2.5s-2.3,1.4-4.3,1.6s-2.5,0.9-3.8,1.1c-1.4,0.2-2.3,0.4-3.6,1.8s-2.5,1.8-3.4,2S673.5,309.6,673.5,309.6z"/>
			<path class="st0" d="M686.8,220.8c-0.9,1.4-3.8,5.4-5,5.6c-1.1,0.2-2.3,1.4-3.2,1.1s-2.9,0-3.6,2.9s-1.8,4.5-2.5,4.3
				s1.1,4.3-2.7,2.5s-2.5,1.6-2.9,2.5c-0.5,0.9,0.7,3.4,0.9,4.3c0.2,0.9,0.9,2.5,1.8,3.8c0.9,1.4,1.6,2.9,3.2,2.5
				c1.6-0.5,6.5,0,6.5,0s1.8,0.7,2.9,0.7c1.1,0,1.4-0.4,2-0.4s2-2.3,1.8-2.5s-0.9-0.9,0.5-2.3c1.4-1.4,2.9-1.8,3.2-3.4
				c0.2-1.6-0.5-1.6,0.2-2.5s2.3-0.7,1.8-1.6c-0.5-0.9,0.4-0.7-0.5-2.5s-2-2.5-1.1-4.7c0.9-2.3,1.8-2.7,1.6-4.1
				c-0.2-1.4,1.1-1.8-0.5-3.4c-1.6-1.6-2.3-2-3.4-2.5C686.8,220.8,686.8,220.8,686.8,220.8z"/>
			<path class="st0" d="M730.9,243.2c0.9-0.2,4.1-2.5,4.3,1.6s0.4,2.9,1.8,5.2c1.3,2.3,2.2,2.9,3.8,1.8c1.6-1.1,3.4-1.1,3.8-3.2
				c0.5-2,0.5-2,1.8-2c1.4,0,1.8-0.2,2.5,0.7s1.1,0,4,1.6s5.4,1.1,7.2,2.7c1.8,1.6,2.7,1.4,5.2,2.3c2.5,0.9,1.3-0.4,3.6,2
				c2.3,2.5,1.4,3.1,2.5,4.3c1.1,1.1,2-0.9,1.6,1.8s-3.6,0,1.1,3.8c4.7,3.8,5.4,4.5,7,5.6s2.7,2.5,1.4,2.5c-1.4,0-5.6,0-6.1-0.7
				s-2.5-1.1-3.8-2.7s-4.3-2.7-4.9-4.1c-0.7-1.4-1.6-1.8-2.7-1.8s-2.3,1.4-3.8,2.9c-1.6,1.6-0.9-0.9-2.9-0.2c-2,0.7-4.3-0.2-5.4-1.1
				c-1.1-0.9-0.9-2.3-2.7-1.6c-1.8,0.7-2.9,0.2-2.3-1.1c0.7-1.4,0.2-3.2,0.2-3.2s0.7-2.3-0.9-2.7c-1.6-0.4-1.6-2-3.2-2.5
				c-1.6-0.4-4.1-1.6-4.1-1.6s-0.2,0-0.9-0.2s-0.7-0.2-2.5-0.7s-3.2,0-4.1-1.1c-0.9-1.1-0.5-2.7-0.5-2.7s3.6,0.4,0-2.3
				s-3.6-2.7-3.6-2.7s0.4-0.2,0.2-0.7C728.5,242.8,730.9,243.2,730.9,243.2z"/>
			<path class="st0" d="M629.7,224.6c0,0,1.1,1.1,2.9,0.9c1.8-0.2,3.1,3.6,4.3,5c1.1,1.4,1.8,2,4.3,3.6s2.3-1.4,5.6,3.4
				c3.4,4.7,1.8,1.8,3.4,4.7c1.6,2.9,2.5,4.5,3.4,5.2s1.6,2.5,1.8,3.1c0.2,0.7,1.8,2.7,1.8,3.4s0.5,2.5-0.9,4.1s-2.5,1.8-2.5,1.8
				s-2.7-1.4-3.6-2.7c-0.9-1.4-2-2.5-3.6-5.2s-3.4-5.6-4.3-7c-0.9-1.4-2.3-2.7-2.9-4.1c-0.7-1.4-2.5-5.4-3.4-5.9s-1.1-1.8-2.7-3.4
				c-1.6-1.6-1.3-2.9-2-3.8c-0.7-0.9-2.3-2.9-2.3-2.9L629.7,224.6z"/>
			<path class="st0" d="M191.9,400.1c-1.6-0.9-5-2.5-6.1-3.4s-4.5-5.9-4.5-5.9l-2.5-4.7c0,0-2.9-3.6-2.3-5c0.7-1.4,2-2.3,2-2.9
				s1.4-2.5,0.2-3.2c-1.1-0.7-1.1-0.9-1.8-2.9s-0.7-3.8-1.6-4.3c-0.9-0.4-1.6-3.4-2.5-3.6s-1.8-1.8-1.8-1.8l-1.4-18.2
				c0,0-0.5-8.3-0.9-10.1c-0.5-1.8,0.7-5.6-0.5-9c-1.1-3.4,0.2-7.4-0.4-8.8c-0.7-1.4,0.4-5.2-0.2-8.8s2.7-8.1,0-9.5
				s-0.7-3.4-2.9-3.4c-2.3,0-3.8-1.1-5.9-2.7c-2-1.6-5.9-4.5-7-5.6s-4.7-4.1-5.9-5s-2.3-4.7-3.2-5.9c-0.9-1.1-1.4-4.5-2.7-6.5
				c-1.4-2-3.2-5.4-3.6-6.1c-0.4-0.7-5.4-6.5-5.4-6.5l0.4-3.6c0,0,3.4-2,2.9-2.7c-0.4-0.7,0.2-1.4-1.4-2.7c-1.6-1.4-1.4-3.8,0-5
				c1.4-1.1,3.4-4.7,3.4-4.7l3.4-5.6c0,0,2.7-2.9,2.7-5s3.8-3.4,1.6-5.2c-2.3-1.8-1.1-3.4-1.8-4.7c-0.7-1.4-0.2-2.3,1.8-3.6
				s5.6-6.3,5.6-6.3s2.7-0.7,3.4-0.7s1.8-7.2,3.8-2.5s2.7,2.3,2,5.6c-0.7,3.4,0.9,2.7,1.8,1.8c0.9-0.9-0.5,0.7,1.4-3.4
				c1.8-4.1,1.1-5.4,2.3-4.3s1.6,1.4,3.6,2c2,0.7,2.7,0.4,3.4,1.8c0.7,1.4,0.5-0.4,4.3,0.2c3.8,0.7,9.2-1.4,8.6,0.9
				c-0.7,2.3-2-0.2,1.1,2.3c3.2,2.5,3.6,2.9,5.4,3.4c1.8,0.4,3.4,0.2,6.1,2.9c2.7,2.7,3.4,2.9,4.1,4.3c0.7,1.4,1.8,0.5,2.9,1.8
				c1.1,1.4,2.7,1.4,4.3,1.4s0-1.4,2.5,0.4c2.5,1.8,4.3,2,5.4,5.6c1.1,3.6,3.4,3.4,1.6,7c-1.8,3.6-5.4,5.2-3.8,5
				c1.6-0.2,4.5-1.6,5.4-1.4c0.9,0.2,1.4-0.7,2.7,0s1.6-0.9,1.4,0.7c-0.2,1.6-0.2,0-0.2,1.6s-0.4-1.6,2.3-0.9
				c2.7,0.7,1.1-1.4,4.3,1.6c3.2,2.9,3.2,2,4.3,3.6s2.3-0.9,2.9-0.2s2.7,0.2,4.7,0.7c2,0.4,0.7-1.4,3.8,0.7c3.1,2,6.3,1.4,7,3.2
				s2.5,1.1,3.4,2.3c0.9,1.2,1.3-0.5,2.3,1.1c0.9,1.6,3.6,1.1,3.2,2.7c-0.5,1.6,0.7,0.7,0.2,2.9c-0.4,2.3-2,5.9-3.4,6.8
				s-1.4,2-2.3,3.2c-0.9,1.1-0.7-1.1-1.8,2c-1.1,3.2-0.9,3.6-1.8,6.5s-0.2,0-0.9,2.9s-0.2,4.7-0.9,8.1s-0.4,3.4-0.9,5.9
				c-0.4,2.5,1.1-1.1-0.9,4.1s-2.3,5-2.9,7.2c-0.7,2.3,0.2,0.5-2.3,1.8c-2.5,1.4-1.1,0.9-4.1,1.8c-2.9,0.9-6.5,1.8-7.7,2
				s-5.6,1.6-4.3,4.3c1.4,2.7,1.4,3.2,0,6.5c-1.4,3.4-3.4,4.5-3.4,6.1s-0.9,3.1-1.1,4.3c-0.2,1.1,2-1.1-0.7,2.3s-2.9,2.5-3.8,4.5
				c-0.9,2,0,0.4-0.9,2s-3.2,2.3-3.2,2.3s0.2,1.1-0.7,0.7s-0.7,0.2-4.1-0.7c-3.4-0.9-3.8-3.1-4.3-1.6c-0.4,1.6,0.2,2.5,2.3,4.1
				c2,1.6,5.4,2,4.5,3.6s-0.9,1.6-1.6,2.5c-0.7,0.9,0.9,0.2-0.7,0.9c-1.6,0.7-2.5,3.6-3.2,3.6s-1.1,1.1-2,0.7
				c-0.9-0.5-3.1-2-3.6-1.1c-0.4,0.9-1.4-1.1-1.1,2c0.2,3.2,0.7,5-0.4,5.6c-1.1,0.7-3.8,0-3.8,0l-0.4-1.1l-1.6,0.5
				c0,0-0.7,2.7,0.4,3.2s0.9,0.9,2,2.3s0.5,3.8,0.5,3.8s0,0.7-1.1,1.8s-1.6,2-1.8,2.7s-1.6,3.6,0.4,3.4s3.6-1.4,3.6,2.3
				c0,3.6,0.9,2.7-0.2,5.2c-1.1,2.5-2,2.7-2.3,5c-0.2,2.3,0.2,2.5,0.7,3.8c0.4,1.4,1.6,0.7,0.4,1.4
				C195.2,400.8,191.9,400.1,191.9,400.1z"/>
			<path class="st0" d="M133.8,216.9l-1.6-2.3c0,0-0.7-1.4-1.8-1.6s-3.6-3.2-3.6-3.2s-1.1-0.9-1.1-2.5s-0.9-4.1-0.2-6.8
				c0.7-2.7,0.9-6.1,0.7-7c-0.2-0.9,1.1-1.1-0.4-2c-1.6-0.9-4.7-1.1-6.8-1.1c-2,0-4.5,0.7-5,0.9c-0.4,0.2,2.5-6.8,2.9-7.9
				c0.4-1.1,2.5-6.1,2.5-6.8s0.7-0.9-0.7-1.8c-1.3-0.9-3.6-1.4-5-0.7c-1.3,0.7-1.1-0.9-2.3,1.8c-1.1,2.7-2.3,5.6-3.6,6.1
				c-1.3,0.5-4.1,1.8-4.1,1.8s-3.4-0.2-4.5-0.4s-5.9-2.7-6.8-4.3s-1.3-5-1.3-6.5c0-1.6,2.5-6.3,2.3-7.4c-0.2-1.1,2.5-5.6,2.3-6.3
				s0.4-2.9,1.1-3.8s4.1-2,5-2.9s2.5-2,4.1-2.5s2.9-0.9,4.1-0.9s4.1-2.5,4.5,0c0.5,2.5,2.5,1.6,3.6,1.8s1.4,1.4,3.2-1.6
				c1.8-2.9,3.6-3.8,3.6-3.2c0,0.7,2.9-0.2,3.4,0.5s1.4-0.5,2.9,0.9c1.6,1.4,3.8,1.6,3.6,2.3s0.9,0.7,0.9,1.4s0.9-1.6,0.9,2.5
				s1.1,6.5,1.1,6.5s1.6,3.4,2.3,2.7s2-2.5,2-2.5s2.3-1.4,0.7-6.1c-1.6-4.7-0.4-6.1-0.9-7.7c-0.5-1.6-0.5-2.5,2.3-4.5
				s9.2-6.5,10.8-7.4s5.2-3.4,5.2-3.4s1.4-0.7,1.6-2.5c0.2-1.8,4.5-5,4.7-5.9s3.2-3.2,3.2-3.2s3.1-1.8,2.9-2.9
				c-0.2-1.1,4.1-3.2,4.7-3.2s4.3,1.1,4.3-0.9s0-2.5,2.3-4.3s5.2-4.5,6.3-4.5s5-2,6.5-2.5c1.6-0.5,6.5-2.7,2,0s-1.6,1.1-2.5,3.4
				s-1.6,5.2,2.7,1.8c4.3-3.4,4.1-4.1,5.6-4.3c1.6-0.2,0.4,0.7,3.8-0.5c3.4-1.1,3.6-1.6,3.6-1.6s1.6-1.4,0.7-2
				c-0.9-0.7,0.9-1.6-2.5-0.2s-3.2,1.6-5.4,0.9c-2.3-0.7-5.6-0.5-3.2-2.7c2.5-2.3,5.6-2.9,3.6-3.8s-7.2,0.2-7.9,0.4
				c-0.7,0.2-2.3-0.2-3.6,0c-1.4,0.2-0.9-1.8,0-2.3s3.8-1.8,7.4-2.7s12.4-1.1,14.4-1.1s4.7,0.5,6.3-0.7c1.6-1.1,4.7-2.9,5.2-3.8
				s2.3-2.3,2.3-2.3s2-2,0.9-2.9s-2.3-2.9-3.2-2.5s-0.2,3.2-2,0.2c-1.8-2.9-1.6-3.4-2.5-4.1s-1.8-0.2-1.1-3.4
				c0.7-3.2,0.4-4.5,0.4-4.5s0.7-2.7,0-2.9s-1.1-0.9-2.3-0.2c-1.1,0.7-7.4,3.8-8.8,4.5c-1.4,0.7-3.2-2.7-2.5-4.3s0.2-0.7-0.7-2.9
				c-0.9-2.3-4.5-2.7-5.9-2.7s-4.5-2-5.4-0.7s-5.6,5.6-6.5,6.1s-2.3-3.8-2.9,3.2c-0.7,7,2.5,9-1.1,9.5s-6.8,2.5-6.8,2.5
				s-2.9,0.2-2.9,2s-1.1,6.1-2.5,6.5c-1.4,0.5-4.7-0.2-5.9-1.6s0.2-6.3,0.2-6.3l2-2c0,0-14.4-2.3-14.2-3.2c0.2-0.9-4.3-2.5-4.7-3.8
				s-0.7-4.3-0.2-5.4c0.4-1.1,6.5-6.5,9.7-7.7c3.2-1.1,8.6-3.6,10.1-4.1c1.6-0.5,4.3-0.2,5.2-1.3s1.1-3.2,1.1-3.2s-0.4-3.2,0.4-2.7
				c0.9,0.5,2.5,1.1,2.7,1.8s0.2,2.3,1.8,0.4c1.6-1.8,3.6-2.5,5.4-3.4c1.8-0.9,4.5-0.7,6.1-1.6c1.6-0.9,4.3-1.8,4.5-4.1
				s-0.7-1.6-1.8-1.8s0.4,0.2-3.4,2c-3.8,1.8-2.7,0.5-5.4,1.8c-2.7,1.4-2.9,1.6-3.2,0.5c-0.2-1.1,0.4-2.9,0.4-2.9s0.2-0.2-1.4-0.7
				c-1.6-0.5-1.6,0.2-1.8-1.8s1.1-5-1.1-4.1c-2.3,0.9-4.3-0.7-5.9,3.8s-7,9.2-8.3,8.1c-1.4-1.1-1.6-1.4-2.7-1.4s-2.7-1.3-4.7-1.6
				s-8.1-0.2-9.7,0c-1.6,0.2-3.4-0.9-4.7,0.5c-1.4,1.3-3.4,3.2-3.4,3.8c0,0.7-2-2.5-2.7-2.3s-2.5-0.9-4.5-0.9s-3.4-1.1-4.1-1.1
				c-0.7,0,0.7-1.8,0-2S113.8,34,113.8,34s-4.7-1.8-6.5-1.6s-6.8,0.4-10.6,1.1c-3.8,0.7-9.5,2.9-11.3,3.2c-1.3,1.1-5.4,1.1-6.1-0.1
				c-0.7-1.1,0.2-0.9-0.7-1.1c-0.9-0.2-0.2-0.7-2.3-2.3c-2-1.6,0.9-2.9-3.2-2.9s-6.5-0.2-10.1,0s-11,2-11.9,1.8s-8.1,1.1-9.2,0.5
				c-1.1-0.7-6.8,2.5-7.9,2.3c-1.1-0.2-5.4,0.2-6.5,0.9s-6.5,2-4.7,3.2c1.8,1.1,1.6,2.3,1.8,2.9c0.2,0.7-1.8,2.3-1.8,2.3
				s-0.5,0-2.9-0.9c-2.5-0.9-5.2-1.3-6.3-0.7c-1.1,0.7-3.2,2-2.7,2.9s3.6,2.9,4.1,2.3c0.4-0.7,1.6-2,2.9-1.8
				c1.4,0.2,3.4-0.9,1.6,1.4c-1.8,2.3-3.4,3.4-4.5,3.6c-1.1,0.2-3.8,0.4-6.3,0.7c-2.5,0.2-2.3-0.9-4.5,1.4c-2.3,2-3.2,0.7-3.7,3.1
				c-0.4,2.5-0.9,2.5,0,3.2s-1.8,0.9,0.2,1.6c2,0.7,4.5,1.4,4.3,2c-0.2,0.7,2.3-0.9,0.9,0.9s-2.3,3.4,0.4,1.6
				c2.7-1.8,4.3-0.5,6.5-1.6s4.5-1.3,5.9-2.3c1.4-0.9,2-2.3,4.1-2.9c2-0.7,0.7,0.2,0.9,1.4s0,1.3,1.4,0.4c1.4-0.9,1.4-0.2,3.2-1.3
				c1.8-1.1,3.8-2.3,5.2-1.6c1.3,0.7,1.8,0.7,2.7,0.7s-1.1-0.2,0.9,0s-0.9-0.7,5.9,0.9c6.8,1.6,8.6,0.5,9,2.9
				c0.5,2.5,1.4-0.2,2.5,1.3c1.1,1.6,1.8,0.2,2.5,2.9c0.7,2.7,0,10.1-0.5,11s-0.7,0.9-0.5,2.9s2.9,11.7,2,12.4s-3,1-3,1l-1.1,4.1
				c0,0-1.8,3.4-3.4,5.2c-1.6,1.8-3.6,4.1-4.7,5.6c-1.1,1.6-2,4.3-3.6,5.9s-2.9,0.9-2.5,4.3c0.5,3.4,0,7,0.5,9.5
				c0.5,2.5,1.6,5.9,2.5,7.2c0.9,1.4,1.6,1.4,3.2,2.5c1.6,1.1,3.6,2.5,3.4,3.6c-0.2,1.1,0.2,8.1,0.2,8.1s1.4,2.3,1.6,4.7
				c0.2,2.5,1.8,5,1.8,5l1.4,2.9c0,0,0.7,0.2,1.6,2c0.9,1.8,0.9,1.8,1.1,2.7c0.2,0.9,0.2,0.7,0.2,0.9s-0.2-3.8-0.7-5
				c-0.5-1.1-0.5-2.5-0.9-3.8s0.2-2.9-1.1-5s-1.3-2.3-2-4.3s-1.6-4.3-0.7-4.7c0.9-0.4,1.6-3.4,3.4,0c1.8,3.4,2,2.5,2.3,5.2
				c0.2,2.7,0.9,3.6,1.6,4.7c0.7,1.1,2.3,5,3.2,6.5c0.9,1.6,0-0.9,2,2.3c2,3.2,2.3,3.8,3.4,6.3s1.8,2.5,2.5,4.3s0.2,1.4-0.2,3.4
				c-0.4,2,0.4,4.3,0.4,4.3s3.2,1.1,3.4,1.8s3.4,1.8,3.8,2.7s3.4,2,3.4,2s2.5,1.6,3.4,2s3.6,0.9,3.6,0.9s1.8,0.5,2.5,0.7
				s2.7,0.2,2.7,0.2s1.8-1.4,2.5-0.9c0.7,0.4,2.3-0.9,2.9,0.2c0.7,1.1,2,1.1,2.7,2s1.3,0.9,2.5,2s2.3,0.9,3.4,1.8
				c1.1,0.9,2,0.9,3.4,0.9c1.3,0,1.3,0,2.3,0.2c0.9,0.2,1.3-0.7,2.3,0.5c0.9,1.1,1.6,1.8,2.3,2.9s2.3,1.1,2.5,2.9
				c0.2,1.8,0.7,1.6,0.7,3.2c0,1.6,0.9,2.3,1.6,2.7s3.2,2.7,3.2,2.7l3.4,0.7l2.7,2L133.8,216.9z"/>
			<path class="st0" d="M205.9,7.8l13.5-1.7c0,0,4.7,0,7.1-1.7c2.4-1.7,0-1.7,7.1-3c7.1-1.4,5.1-2,8.8-1.4c3.7,0.7,4.7,0.7,8.8,1.4
				s5.1-0.3,8.8,0.7c3.7,1,5.4,0.7,8.4,0.7s4.7,0,9.5,0c4.7,0,9.1-2.7,10.8-1s2.7,1,8.4,1.7c5.7,0.7,8.1-0.7,10.5,0s6.4-0.3,11.1,0
				s7.1-0.3,8.8-0.3s3.4-2.4,5.7-0.3s5.4-0.7,5.7,2c0.3,2.7,4.7,0.7,0.3,2.7c-4.4,2-3.7,1.7-6.8,4.4c-3,2.7,2,5.1-4.4,7.4
				c-6.4,2.4-7.4-1.4-9.1,2.7s0,5.1-0.3,7.1s-1,2.4-3,4.1c-2,1.7-2,0-6.8,1c-4.7,1-8.1,2-10.1,2s-6.4,1.7-7.8,2.4s2.4,1.7-4.7,3.7
				s-8.8,1.7-10.8,4.4s-1.4,3-2.7,4.7c-1.4,1.7-5.4,8.4-7.4,6.8c-2-1.7-3-1.4-4.7-3s-2.7-4.1-3.7-5.4s-1.4-4.7-1.7-6.8
				s-3.4-6.8,0-6.1c3.4,0.7,5.4,0.3,6.4-0.3c1-0.7,2-3,2-3s-0.3-3.7-1.4-5.7c-1-2-0.3-3.7-2-5.7s-1.7-1.7-4.1-3.7s-1.7-3-5.4-3.4
				c-3.7-0.3-4.7-1.4-6.1-1c-1.4,0.3-5.7-2.4-1-2.7s9.1,0.3,9.1,0.3s6.1-2.7,4.1-3s3-3.4-1.7-2.4S245,8.8,243.6,9.1
				s-4.7,0.7-8.1,1.7c-3.4,1-7.4,0.7-9.5,3c-2,2.4,0,2.7-2,2.4c-2-0.3,1.7-2.4-3,0s-3.4,2-5.7,1.4c-2.4-0.7-4.1-1.7-4.1-1.7
				s3-0.3-1.4-0.7c-4.4-0.3-4.4-0.3-6.1-2.4c-1.7-2-0.7-2,0.3-2.7C205.3,9.1,205.9,7.8,205.9,7.8z"/>
			<path class="st0" d="M198.5,23c-1.7,1.7-5.7,4.1-4.7,5.1s1.7,4.7,3.7,3.7s-0.3-4.4,7.4-1.7c7.8,2.7,7.1-0.3,8.8,3.7s3,7.1,2,8.1
				s-1.4,2-4.7,3c-3.4,1-4.7,2.4-2.4,4.1c2.4,1.7,6.8,3.4,8.8,4.4s8.1,1.4,5.1-2s0.7-4.4,0.7-4.4s5.7,4.4,3.7-0.7s-3.4-5.1-2-5.1
				s4.1,1.7,4.1,1.7l1.4-2.7l-1.4-4.4l-4.4-4.4c0,0,3.7-3.4-1.4-4.1c-5.1-0.7-4.7-0.7-7.4-2.4c-2.7-1.7-3-2.4-8.1-1.4
				s-6.8,1.7-6.8,1.7L198.5,23z"/>
			<path class="st0" d="M123.2,27c2-2,7.4-6.8,9.5-5.4c2,1.4,5.1-1,7.4,1c2.4,2,5.1,4.4,7.1,5.1s4.4-1.7,6.4-0.7s9.1-5.1,7.8-0.3
				c-1.4,4.7,1.7,6.1-2,6.4c-3.7,0.3-7.8,3-9.5,2s-3-2-5.7-0.7s-1.4,1.3-4.4,0.7c-3-0.7-3.7,0.7-4.4-0.3s-2.7-0.7-2.4-3.7
				s1.4-2.7-0.7-2.7c-2,0-3.7,0.3-5.1-0.7C125.9,26.6,123.2,27,123.2,27z"/>
		</g>
		<path class="st0" d="M637.8,209.6c0,0,1.2,5,3.7,7.9c1.6,1.9,6.2,5.9,7.7,7.9c0,0-0.2,3.3,0,4.5c0,0,1.8,4.1,1.7,5.9
			c0,0-2.7-0.9-6.5-4c0,0-1-5.3-4.8-12c0,0-5.1-5.9-4.4-14.2L637.8,209.6z"/>
	</g>
	<g>
		<path class="st0" d="M365.6,83.8l-0.5,0.5c-0.4,0.4-0.9,0.7-1.4,1l-0.8,0.3h-1.2l-1.1,0.3c-0.7,0.2-1.4,0.4-2,0.7l0,0H358h-1h-0.8
			l-0.6-0.4l-0.6,1.3c-0.3,0.5-0.3,0.7-0.8,0.7l-1-0.5l0,0c-0.8,0-1.6,0.4-2.1,1l0,0h-1.4c0,0-0.8-0.4,1.3-1.1c1.6-0.5,1-1.9,1-1.9
			s0.1-1.3,2.9-1.5s1.4-1,1.4-1s0.7-1-0.7-2.1c0,0-0.5-1.3-0.2-2.7s0.5-1,0.5-1l-0.5-1.5c0,0,0.4-2.2-0.1-2.9
			c-0.5-0.6-1.6-0.8-1.6-0.8s-0.7,0,0.8-1.8c0.4-0.5,1.1-1,1.1-1s1.4-1.8,1.5-2.7c0,0,0.7-0.5,1.8,2.1c0.6,1.3,0.9,1.8,1.1,2
			c0.3,0.3,0.6,0.5,0.9,0.8l1.4,1.9l0.9,3.5c0.1,0.3,0.4,0.5,0.7,0.4c0.4-0.1,0.9-0.2,1.3-0.1c1.2,0.5,1.7,1.9,1.3,3.1
			c-0.1,0.4-1,1.4-0.9,1.9C365.8,84.2,365.6,83.8,365.6,83.8z"/>
		<path class="st0" d="M349.3,66.2"/>
		<path class="st0" d="M358.4,68.4c0,0-0.2-2-2.2-2.3s-2,0-2,0s1.6-1.3,1.3-1.3l-0.7-0.1c0,0,2.9-4,2.2-5.7c0,0-0.6-0.3-2.8,0
			l-2.3,0.7c0,0,0.1-1.2,0.9-2.2s1.7-1.3,1.3-2.2c0,0-2.4,0.2-3.7,0.2c-0.4,0-0.7,0.3-0.7,0.6l-0.3,1.7c0,0-1.7,1.3-0.6,4.4
			c0,0-1.9,1.5-1.1,2.8l1.7-1.6c0,0,0.1,1.4-0.4,2.2c-0.5,0.8,0,1.3,0,1.3s0.1,1.9-0.2,2.3s0.9-0.5,0.6-2.1c0,0,0.1-0.2,0.5-0.3
			l0.5,0.2c0,0,0.8,0.3,0.8,1.3c0,0-1.2,2-0.8,2.8l0.9,1.5c0,0-0.1,1.4,0,1.7c0,0,0.7-1.5,1.3-1.8c2-1.1,2.6,3.8,2.6,3.8l-2.3,0.5
			c0,0-0.3-1-0.8-1c0,0-0.5,1,0.3,1.9l-0.7,1c0,0,0.8-0.9,1.3,0.6v1.3l-2.2,1.1c0,0-0.2,1.1,1.1,1c0,0,1.2-0.3,1.8,0
			c0,0,1.3,1.6,2.3,0.5l5-4.8c0,0-1.2-6.5-2.4-9.5"/>
		<path class="st0" d="M347,56c0,0-2.2,1.4-1.5,2.5c0,0,0.1,0.4-0.1,0.9c0,0,0.5-0.3,0.8-0.9c0,0,0.6,0.1,0.8-0.6
			c0,0-0.3-0.8,0.2-1.4C347.1,56.5,347.5,56.3,347,56z"/>
		<path class="st0" d="M347.8,61.2c0,0-0.2-0.3-0.4-1.2c0,0,0-0.6-0.6-0.6c0,0,0.3,0.5,0.2,0.9c0,0-0.6-0.2-0.6-0.4
			c0,0-0.4,0.3,0.2,0.8c0,0,0.3,0.4,0.5,0.7C347,61.5,348,61.8,347.8,61.2z"/>
		<path class="st0" d="M345,59.8c0,0-0.4-0.2-0.4,0.3l0.2,2c0,0,0,0,0.2,0.2C345,62.2,345.2,60.8,345,59.8z"/>
		<path class="st0" d="M349.3,71.9l-0.5-0.6l-0.2-0.8c0,0,0-2-2.4-0.5c0,0-0.3-1.2-1.1-1c0,0,0.1,1.1-0.3,1.5c0,0,0.2-0.8-0.3-1
			l-1.5,0.7c0,0-0.1,1.4-1,1.9c0,0,0.4,0.4,1.3,0.3c0,0-0.4,1.3-2.3,1.4c0,0-1.9-1-1.7,0.6l-0.3,0.4c0,0,0.1,0.6,1.3,0.3
			c0,0-0.4,0.3-1.1,1.3c0,0-0.3,1,2.5,1.1l-1.9,0.9c0,0-0.6,0.8,0.5,1.4c0,0,0.1,0.8-0.3,1.4c0,0-0.5,0.1-1,0c0,0-0.7,0.6,0.7,0.6
			c0,0-0.2,0.2-0.9,1c0,0,0.4,0.6,1.2,0c0,0-0.2,0.3-0.3,0.7c0,0,0.5-0.1,1-0.2c0,0-1,1.4,2.8-0.3l0.2-0.4c0,0,1-0.3,1.2-1.2
			c0,0,1.1-0.4,2.2-0.3c0,0,0.6,0.3,0.6-0.1c0,0-0.2-0.8,0.2-1.2c0,0,1.1-1.1-0.4-5.1c0,0,0-0.6,1.2-1.5
			C348.8,73.2,349.8,72.6,349.3,71.9z"/>
		<path class="st0" d="M347.6,65.1c0,0,0.4,0.3,1-0.2c0,0,0.5-0.8,1.1-1.5h-1L347.6,65.1z"/>
		<path class="st0" d="M348.3,66.1c0,0-1.2,0.6-1.3,1.4c0,0,0.5-0.3,0.6,0l-0.2,0.5C347.4,68.1,347.9,68.1,348.3,66.1z"/>
	</g>
</g>
<g>
	<g>
		<circle class="st1" cx="418.3" cy="43.8" r="3.8"/>
		<circle class="st2" cx="418.3" cy="43.8" r="3.8"/>
		<circle class="st3" cx="418.3" cy="43.8" r="3.8"/>
		<circle class="st4" cx="418.3" cy="43.8" r="3.8"/>
		<circle class="st5" cx="418.3" cy="43.8" r="3.8"/>
		<circle class="st6" cx="418.3" cy="43.8" r="3.8"/>
		<circle class="st7" cx="418.3" cy="43.8" r="3.8"/>
	</g>
	<circle class="st8" cx="418.3" cy="43.8" r="5"/>
</g>
<g>
	<g>
		<circle class="st1" cx="361" cy="74.5" r="3.8"/>
		<circle class="st2" cx="361" cy="74.5" r="3.8"/>
		<circle class="st3" cx="361" cy="74.5" r="3.8"/>
		<circle class="st4" cx="361" cy="74.5" r="3.8"/>
		<circle class="st5" cx="361" cy="74.5" r="3.8"/>
		<circle class="st6" cx="361" cy="74.5" r="3.8"/>
		<circle class="st7" cx="361" cy="74.5" r="3.8"/>
	</g>
	<circle class="st8" cx="361" cy="74.5" r="5"/>
</g>
<g>
	<g>
		<circle class="st1" cx="158.8" cy="127.3" r="3.8"/>
		<circle class="st2" cx="158.8" cy="127.3" r="3.8"/>
		<circle class="st3" cx="158.8" cy="127.3" r="3.8"/>
		<circle class="st4" cx="158.8" cy="127.3" r="3.8"/>
		<circle class="st5" cx="158.8" cy="127.3" r="3.8"/>
		<circle class="st6" cx="158.8" cy="127.3" r="3.8"/>
		<circle class="st7" cx="158.8" cy="127.3" r="3.8"/>
	</g>
	<circle class="st8" cx="158.8" cy="127.3" r="5"/>
</g>
<g>
	<g>
		<circle class="st1" cx="513.4" cy="163.4" r="3.8"/>
		<circle class="st2" cx="513.4" cy="163.4" r="3.8"/>
		<circle class="st3" cx="513.4" cy="163.4" r="3.8"/>
		<circle class="st4" cx="513.4" cy="163.4" r="3.8"/>
		<circle class="st5" cx="513.4" cy="163.4" r="3.8"/>
		<circle class="st6" cx="513.4" cy="163.4" r="3.8"/>
		<circle class="st7" cx="513.4" cy="163.4" r="3.8"/>
	</g>
	<circle class="st8" cx="513.4" cy="163.4" r="5"/>
</g>
<g>
	<g>
		<circle class="st1" cx="649.1" cy="232.9" r="3.8"/>
		<circle class="st2" cx="649.1" cy="232.9" r="3.8"/>
		<circle class="st3" cx="649.1" cy="232.9" r="3.8"/>
		<circle class="st4" cx="649.1" cy="232.9" r="3.8"/>
		<circle class="st5" cx="649.1" cy="232.9" r="3.8"/>
		<circle class="st6" cx="649.1" cy="232.9" r="3.8"/>
		<circle class="st7" cx="649.1" cy="232.9" r="3.8"/>
	</g>
	<circle class="st8" cx="649.1" cy="232.9" r="5"/>
</g>
</svg>
